<svg width="595" height="234" viewBox="0 0 595 234" fill="none" xmlns="http://www.w3.org/2000/svg">
    <g clip-path="url(#clip0_509_56)">
        <path
            d="M184.21 87.1051C188.096 83.0827 192.775 79.9191 197.95 77.817C203.124 75.715 208.679 74.721 214.258 74.8985C219.81 74.7105 225.339 75.7007 230.484 77.8041C235.629 79.9075 240.274 83.0769 244.114 87.1051C251.659 95.7498 255.818 106.851 255.818 118.343C255.818 129.835 251.659 140.935 244.114 149.58C240.3 153.624 235.676 156.813 230.547 158.937C225.418 161.061 219.9 162.073 214.354 161.907C208.764 162.079 203.201 161.071 198.025 158.948C192.849 156.824 188.175 153.633 184.306 149.58C176.699 140.966 172.499 129.853 172.499 118.343C172.499 106.832 176.699 95.7196 184.306 87.1051H184.21ZM237.722 92.8961C234.686 89.7064 231.037 87.1675 226.996 85.4329C222.955 83.6983 218.605 82.8039 214.21 82.8039C209.815 82.8039 205.465 83.6983 201.424 85.4329C197.383 87.1675 193.735 89.7064 190.699 92.8961C184.758 100.035 181.503 109.041 181.503 118.343C181.503 127.644 184.758 136.65 190.699 143.789C193.747 146.958 197.4 149.478 201.439 151.199C205.478 152.92 209.822 153.807 214.21 153.807C218.599 153.807 222.942 152.92 226.981 151.199C231.021 149.478 234.674 146.958 237.722 143.789C243.602 136.622 246.817 127.627 246.817 118.343C246.817 109.059 243.602 100.063 237.722 92.8961Z"
            fill="#231F20" />
        <path
            d="M385.447 156.98C384.31 156.98 383.22 156.527 382.416 155.72C381.613 154.914 381.161 153.82 381.161 152.679V82.0102C381.161 80.8694 381.613 79.7754 382.416 78.9688C383.22 78.1621 384.31 77.709 385.447 77.709C386.586 77.709 387.678 78.1614 388.486 78.9673C389.293 79.7732 389.75 80.8672 389.757 82.0102V152.679C389.75 153.822 389.293 154.916 388.486 155.722C387.678 156.528 386.586 156.98 385.447 156.98Z"
            fill="#231F20" />
        <path
            d="M410.85 76.2669V53.5116C410.846 52.5518 411.151 51.6165 411.721 50.8456C412.291 50.0746 413.094 49.5095 414.01 49.2345C414.675 49.0319 415.379 48.9885 416.064 49.1078C416.749 49.2271 417.397 49.5058 417.956 49.9216C418.514 50.3373 418.968 50.8786 419.281 51.502C419.593 52.1254 419.756 52.8137 419.756 53.5116V76.2669H442.286C443.393 76.2733 444.453 76.7191 445.233 77.507C446.014 78.2949 446.452 79.3609 446.452 80.472C446.455 81.023 446.35 81.5693 446.142 82.0793C445.934 82.5894 445.627 83.0531 445.24 83.4439C444.853 83.8347 444.393 84.1448 443.886 84.3564C443.379 84.5681 442.835 84.677 442.286 84.677H419.876V137.228C420.115 147.849 432.47 153.135 440.658 153.135C445.863 153.294 450.954 151.59 455.023 148.329C455.89 147.613 456.988 147.242 458.11 147.287C459.231 147.331 460.297 147.788 461.105 148.57C461.609 149.044 462 149.626 462.251 150.273C462.501 150.92 462.603 151.615 462.551 152.306C462.498 152.998 462.291 153.669 461.945 154.27C461.6 154.871 461.124 155.386 460.554 155.778C454.268 159.978 446.813 162.057 439.269 161.713C425.838 161.713 410.993 153.568 410.993 137.228V76.2669H410.85Z"
            fill="#231F20" />
        <path
            d="M478.416 87.1051C482.301 83.0827 486.981 79.9191 492.155 77.817C497.329 75.715 502.884 74.721 508.463 74.8985C514.015 74.7105 519.545 75.7007 524.689 77.8041C529.834 79.9075 534.479 83.0769 538.319 87.1051C545.85 95.7567 550 106.855 550 118.343C550 129.83 545.85 140.929 538.319 149.58C534.494 153.636 529.855 156.832 524.709 158.957C519.562 161.082 514.025 162.087 508.463 161.907C502.874 162.079 497.311 161.071 492.134 158.948C486.958 156.824 482.284 153.633 478.416 149.58C470.799 140.97 466.592 129.856 466.592 118.343C466.592 106.829 470.799 95.7149 478.416 87.1051ZM531.927 92.8961C528.891 89.7064 525.242 87.1675 521.201 85.4329C517.16 83.6983 512.811 82.8039 508.415 82.8039C504.02 82.8039 499.671 83.6983 495.63 85.4329C491.588 87.1675 487.94 89.7064 484.904 92.8961C478.963 100.035 475.708 109.041 475.708 118.343C475.708 127.644 478.963 136.65 484.904 143.789C487.952 146.958 491.605 149.478 495.644 151.199C499.684 152.92 504.027 153.807 508.415 153.807C512.804 153.807 517.147 152.92 521.187 151.199C525.226 149.478 528.879 146.958 531.927 143.789C537.807 136.622 541.022 127.627 541.022 118.343C541.022 109.059 537.807 100.063 531.927 92.8961Z"
            fill="#231F20" />
        <path
            d="M346.779 91.0449C345.71 89.5651 344.55 88.1527 343.308 86.8158C339.418 82.7423 334.718 79.5369 329.511 77.4089C324.305 75.2808 318.711 74.2777 313.092 74.465C307.45 74.287 301.833 75.2936 296.601 77.4205C291.369 79.5473 286.638 82.7474 282.709 86.8158C274.997 95.5211 270.736 106.765 270.736 118.414C270.736 130.063 274.997 141.306 282.709 150.012C283.164 150.492 283.643 150.901 284.098 151.333L284.888 152.102C290.281 156.885 296.929 160.013 304.042 161.113C307.017 161.688 310.039 161.978 313.068 161.978C318.614 162.144 324.133 161.132 329.262 159.008C334.391 156.884 339.014 153.695 342.829 149.651C344.275 148.155 345.604 146.548 346.803 144.845V157.677C346.676 168.442 343.994 177.084 338.759 183.604C333.523 190.124 325.702 193.328 315.295 193.215C308.192 193.345 301.261 191.02 295.662 186.632C294.212 185.436 292.866 184.117 291.64 182.691C290.905 181.832 289.881 181.277 288.762 181.13C287.644 180.984 286.512 181.257 285.582 181.898L285.223 182.162C284.817 182.435 284.471 182.789 284.206 183.202C283.942 183.615 283.765 184.078 283.686 184.563C283.607 185.047 283.629 185.543 283.749 186.018C283.87 186.494 284.086 186.94 284.385 187.328C286.261 189.691 288.434 191.799 290.85 193.6C297.971 198.683 306.561 201.275 315.295 200.977C328.607 200.977 338.615 196.972 345.319 188.962C352.023 180.953 355.263 170.348 355.039 157.148V118.005C355.258 108.359 352.36 98.9012 346.779 91.0449ZM336.819 144.149C333.739 147.356 330.046 149.908 325.961 151.651C321.876 153.394 317.483 154.292 313.044 154.292C308.606 154.292 304.212 153.394 300.127 151.651C296.042 149.908 292.35 147.356 289.27 144.149C283.254 136.932 279.957 127.823 279.957 118.414C279.957 109.005 283.254 99.8951 289.27 92.6788C292.339 89.4527 296.029 86.8848 300.115 85.1304C304.201 83.3759 308.6 82.4713 313.044 82.4713C317.489 82.4713 321.887 83.3759 325.974 85.1304C330.06 86.8848 333.75 89.4527 336.819 92.6788C342.778 99.9214 346.038 109.021 346.038 118.414C346.038 127.807 342.778 136.906 336.819 144.149Z"
            fill="#231F20" />
        <path
            d="M53.2697 120.625C61.1506 120.625 67.5393 114.213 67.5393 106.304C67.5393 98.3942 61.1506 91.9824 53.2697 91.9824C45.3888 91.9824 39 98.3942 39 106.304C39 114.213 45.3888 120.625 53.2697 120.625Z"
            fill="#08E8DE" />
        <path
            d="M102.542 60.0246C110.2 60.0342 117.73 61.9921 124.429 65.7152C131.129 69.4383 136.778 74.8051 140.85 81.3141C141.574 82.4636 142.697 83.302 144.003 83.6662C145.308 84.0303 146.702 83.8943 147.913 83.2845C148.595 82.9415 149.199 82.4598 149.686 81.8702C150.173 81.2805 150.533 80.5957 150.742 79.8591C150.952 79.1226 151.006 78.3504 150.902 77.5915C150.799 76.8327 150.539 76.1038 150.139 75.4511C144.865 67.0365 137.471 60.1686 128.703 55.5414C119.936 50.9143 110.108 48.692 100.211 49.0991C90.3134 49.5063 80.6988 52.5285 72.3386 57.8602C63.9783 63.192 57.1687 70.6443 52.5981 79.4639H53.2446C56.9265 79.4688 60.5685 80.2293 63.9468 81.6986C67.9982 75.0767 73.673 69.6076 80.4297 65.8132C87.1864 62.0188 94.7995 60.0259 102.542 60.0246Z"
            fill="#231F20" />
        <path
            d="M147.124 128.843C145.936 128.254 144.576 128.117 143.295 128.457C142.014 128.798 140.899 129.592 140.157 130.693C136.018 136.92 130.409 142.024 123.829 145.549C117.25 149.074 109.903 150.911 102.445 150.897C94.9864 150.882 87.6472 149.017 81.0809 145.467C74.5145 141.917 68.925 136.792 64.8101 130.549C61.2943 132.238 57.4547 133.14 53.5571 133.192C58.2674 141.604 65.0485 148.663 73.2526 153.694C81.4566 158.725 90.8092 161.561 100.417 161.93C110.024 162.299 119.565 160.188 128.128 155.801C136.691 151.413 143.99 144.895 149.327 136.868C149.759 136.214 150.047 135.475 150.173 134.7C150.3 133.926 150.261 133.133 150.06 132.375C149.858 131.616 149.499 130.909 149.005 130.3C148.512 129.692 147.895 129.195 147.196 128.843H147.124Z"
            fill="#231F20" />
        <path
            d="M385.375 49.0428C386.218 48.938 387.074 49.0262 387.879 49.3009C388.683 49.5756 389.415 50.0295 390.02 50.6287C391.147 51.8731 391.741 53.5135 391.672 55.1942C391.695 56.0081 391.552 56.8182 391.252 57.5745C390.951 58.3308 390.499 59.0172 389.924 59.5915C389.325 60.1805 388.613 60.6401 387.83 60.9418C387.048 61.2435 386.212 61.3809 385.375 61.3456C384.563 61.3735 383.755 61.2319 383.001 60.93C382.246 60.6281 381.563 60.1723 380.993 59.5915C380.117 58.731 379.517 57.6264 379.273 56.4204C379.028 55.2144 379.149 53.9625 379.621 52.8266C380.093 51.6906 380.894 50.7228 381.919 50.0483C382.945 49.3737 384.149 49.0235 385.375 49.0428Z"
            fill="#08E8DE" />
    </g>
    <defs>
        <clipPath id="clip0_509_56">
            <rect width="595" height="234" fill="white" />
        </clipPath>
    </defs>
</svg>
