<svg width="595" height="232" viewBox="0 0 595 232" fill="none" xmlns="http://www.w3.org/2000/svg">
    <g clip-path="url(#clip0_509_57)">
        <path
            d="M185.214 82.1586C189.095 78.1191 193.773 74.94 198.947 72.8252C204.122 70.7105 209.679 69.7068 215.262 69.8785C220.814 69.6902 226.343 70.6823 231.488 72.7901C236.633 74.8979 241.278 78.0739 245.119 82.1104C252.659 90.7753 256.815 101.898 256.815 113.413C256.815 124.927 252.659 136.05 245.119 144.715C241.299 148.759 236.674 151.947 231.546 154.072C226.418 156.196 220.901 157.208 215.358 157.043C209.77 157.214 204.21 156.206 199.034 154.082C193.858 151.959 189.183 148.768 185.309 144.715C177.712 136.078 173.518 124.944 173.518 113.413C173.518 101.881 177.712 90.7474 185.309 82.1104L185.214 82.1586ZM238.726 87.9856C235.693 84.7831 232.046 82.2335 228.004 80.4914C223.963 78.7493 219.611 77.851 215.214 77.851C210.817 77.851 206.465 78.7493 202.424 80.4914C198.382 82.2335 194.734 84.7831 191.702 87.9856C185.763 95.1355 182.509 104.156 182.509 113.473C182.509 122.789 185.763 131.81 191.702 138.96C194.75 142.135 198.403 144.66 202.442 146.385C206.482 148.109 210.825 148.998 215.214 148.998C219.602 148.998 223.946 148.109 227.985 146.385C232.025 144.66 235.678 142.135 238.726 138.96C244.609 131.784 247.826 122.773 247.826 113.473C247.826 104.172 244.609 95.1617 238.726 87.9856Z"
            fill="white" />
        <path
            d="M386.453 152.179C385.317 152.179 384.227 151.725 383.423 150.917C382.619 150.108 382.167 149.012 382.167 147.869V77.1021C382.167 75.959 382.619 74.8627 383.423 74.0544C384.227 73.2461 385.317 72.792 386.453 72.792C387.592 72.792 388.685 73.2453 389.492 74.0529C390.3 74.8606 390.757 75.9568 390.763 77.1021V147.917C390.744 149.054 390.282 150.138 389.476 150.935C388.669 151.733 387.584 152.179 386.453 152.179Z"
            fill="white" />
        <path
            d="M411.856 71.323V48.4965C411.852 47.5347 412.158 46.5975 412.727 45.825C413.297 45.0524 414.1 44.486 415.016 44.2105C415.682 44.0074 416.385 43.9639 417.071 44.0835C417.756 44.2031 418.404 44.4824 418.962 44.899C419.521 45.3156 419.975 45.858 420.287 46.4827C420.6 47.1074 420.763 47.7971 420.763 48.4965V71.323H443.293C443.842 71.323 444.386 71.4321 444.893 71.6442C445.4 71.8562 445.86 72.167 446.247 72.5586C446.634 72.9502 446.941 73.4149 447.149 73.926C447.357 74.4371 447.462 74.9845 447.459 75.5367C447.459 76.6479 447.02 77.7135 446.239 78.4992C445.457 79.2849 444.398 79.7264 443.293 79.7264H420.882V132.483C421.122 143.101 433.476 148.423 441.665 148.423C446.868 148.571 451.956 146.865 456.03 143.607C456.897 142.89 457.995 142.518 459.117 142.562C460.238 142.606 461.304 143.064 462.112 143.848C462.62 144.321 463.016 144.904 463.268 145.552C463.521 146.201 463.625 146.899 463.572 147.593C463.519 148.288 463.311 148.961 462.963 149.564C462.614 150.166 462.135 150.681 461.561 151.071C455.279 155.289 447.822 157.381 440.276 157.043C426.844 157.043 412 148.856 412 132.507V71.323H411.856Z"
            fill="white" />
        <path
            d="M479.422 82.1586C483.303 78.1191 487.981 74.94 493.156 72.8252C498.33 70.7105 503.887 69.7068 509.47 69.8785C515.022 69.6902 520.552 70.6823 525.696 72.7901C530.841 74.8979 535.486 78.0739 539.327 82.1104C546.853 90.7821 551 101.903 551 113.413C551 124.923 546.853 136.043 539.327 144.715C535.503 148.784 530.865 151.993 525.719 154.13C520.573 156.268 515.035 157.285 509.47 157.115C503.883 157.287 498.322 156.278 493.146 154.155C487.971 152.031 483.295 148.84 479.422 144.787C471.81 136.157 467.606 125.021 467.606 113.485C467.606 101.949 471.81 90.8126 479.422 82.1826V82.1586ZM532.934 87.9856C529.902 84.7831 526.254 82.2335 522.212 80.4914C518.171 78.7493 513.819 77.851 509.422 77.851C505.025 77.851 500.674 78.7493 496.632 80.4914C492.59 82.2335 488.943 84.7831 485.91 87.9856C479.971 95.1355 476.717 104.156 476.717 113.473C476.717 122.789 479.971 131.81 485.91 138.96C488.959 142.135 492.611 144.66 496.651 146.385C500.69 148.109 505.034 148.998 509.422 148.998C513.811 148.998 518.154 148.109 522.194 146.385C526.233 144.66 529.886 142.135 532.934 138.96C538.817 131.784 542.034 122.773 542.034 113.473C542.034 104.172 538.817 95.1617 532.934 87.9856Z"
            fill="white" />
        <path
            d="M347.785 86.0347C346.696 84.5917 345.52 83.2167 344.265 81.9173C340.372 77.8401 335.671 74.6315 330.465 72.4994C325.26 70.3673 319.667 69.3592 314.049 69.5408C308.416 69.3796 302.812 70.3964 297.59 72.5268C292.368 74.6572 287.643 77.8549 283.714 81.9173C276.004 90.6469 271.746 101.917 271.746 113.593C271.746 125.268 276.004 136.538 283.714 145.268C284.169 145.725 284.648 146.135 285.103 146.568L285.893 147.339C291.289 152.13 297.935 155.271 305.047 156.392C308.022 156.96 311.045 157.243 314.073 157.235C319.617 157.401 325.133 156.388 330.261 154.264C335.39 152.139 340.015 148.951 343.834 144.907C345.279 143.363 346.608 141.713 347.809 139.971V152.829C347.681 163.648 344.999 172.308 339.764 178.809C334.528 185.311 326.707 188.521 316.3 188.441C311.82 188.584 307.366 187.708 303.27 185.878C299.174 184.047 295.541 181.31 292.644 177.87C291.913 177.006 290.888 176.445 289.768 176.298C288.648 176.152 287.515 176.429 286.587 177.076L286.228 177.317C285.821 177.59 285.475 177.945 285.211 178.359C284.946 178.772 284.769 179.236 284.69 179.722C284.612 180.207 284.633 180.704 284.754 181.181C284.874 181.658 285.091 182.104 285.39 182.494C287.265 184.861 289.438 186.973 291.854 188.778C298.973 193.88 307.563 196.486 316.3 196.194C329.612 196.194 339.62 192.181 346.324 184.155C353.028 176.129 356.269 165.502 356.045 152.275V113.219C356.297 103.497 353.397 93.9553 347.785 86.0347ZM337.825 139.272C334.739 142.478 331.045 145.027 326.96 146.767C322.876 148.508 318.485 149.405 314.049 149.405C309.613 149.405 305.223 148.508 301.138 146.767C297.054 145.027 293.359 142.478 290.274 139.272C284.256 132.037 280.959 122.905 280.959 113.472C280.959 104.04 284.256 94.9072 290.274 87.6721C293.344 84.4393 297.033 81.8661 301.12 80.108C305.206 78.3499 309.605 77.4434 314.049 77.4434C318.494 77.4434 322.893 78.3499 326.979 80.108C331.066 81.8661 334.755 84.4393 337.825 87.6721C343.782 94.9354 347.039 104.057 347.039 113.472C347.039 122.887 343.782 132.009 337.825 139.272Z"
            fill="white" />
        <path
            d="M54.2699 115.771C62.151 115.771 68.5399 109.346 68.5399 101.421C68.5399 93.4949 62.151 87.0698 54.2699 87.0698C46.3889 87.0698 40 93.4949 40 101.421C40 109.346 46.3889 115.771 54.2699 115.771Z"
            fill="#08E8DE" />
        <path
            d="M103.545 55.0218C111.205 55.0341 118.737 56.9997 125.437 60.7348C132.136 64.4699 137.784 69.8526 141.853 76.3796C142.577 77.5316 143.703 78.3702 145.009 78.731C146.316 79.0918 147.709 78.9488 148.917 78.3299C149.598 77.9887 150.202 77.5084 150.689 76.9197C151.175 76.331 151.535 75.6468 151.745 74.9106C151.954 74.1744 152.009 73.4024 151.905 72.6438C151.802 71.8852 151.542 71.1566 151.143 70.5044C145.875 62.0649 138.484 55.1748 129.717 50.5315C120.95 45.8881 111.119 43.6564 101.219 44.062C91.3192 44.4677 81.7014 47.4964 73.3393 52.8417C64.9773 58.1869 58.1678 65.6589 53.6001 74.5014H54.2465C57.9314 74.5023 61.5759 75.2729 64.949 76.7648C68.9992 70.1263 74.6733 64.6424 81.4299 60.8361C88.1865 57.0297 95.8003 55.0279 103.545 55.0218Z"
            fill="white" />
        <path
            d="M148.126 124.007C146.941 123.409 145.581 123.266 144.299 123.603C143.018 123.939 141.901 124.733 141.158 125.837C137.02 132.077 131.411 137.191 124.831 140.723C118.251 144.256 110.904 146.097 103.446 146.082C95.9871 146.068 88.6478 144.199 82.0813 140.641C75.5149 137.084 69.9253 131.948 65.8103 125.692C62.2945 127.385 58.4547 128.289 54.5571 128.341C59.2674 136.77 66.0487 143.844 74.2529 148.886C82.4571 153.927 91.8099 156.769 101.418 157.138C111.025 157.508 120.567 155.393 129.13 150.996C137.693 146.6 144.992 140.068 150.328 132.025C150.764 131.372 151.055 130.633 151.184 129.858C151.312 129.083 151.274 128.289 151.072 127.53C150.87 126.77 150.509 126.063 150.014 125.456C149.518 124.848 148.899 124.354 148.198 124.007H148.126Z"
            fill="white" />
        <path
            d="M386.381 44.0419C387.222 43.939 388.076 44.0261 388.879 44.2969C389.683 44.5676 390.416 45.0153 391.026 45.6071C392.155 46.8628 392.749 48.5144 392.678 50.206C392.702 51.0216 392.559 51.8335 392.258 52.5913C391.957 53.3492 391.506 54.037 390.93 54.6124C390.329 55.1981 389.616 55.6556 388.834 55.9576C388.052 56.2596 387.218 56.4 386.381 56.3702C385.17 56.3551 383.99 55.9837 382.987 55.302C381.983 54.6202 381.2 53.658 380.734 52.5339C380.268 51.4097 380.14 50.173 380.365 48.9763C380.59 47.7796 381.158 46.6753 382 45.7997C382.569 45.2177 383.253 44.7609 384.007 44.4583C384.761 44.1558 385.57 44.014 386.381 44.0419Z"
            fill="#08E8DE" />
    </g>
    <defs>
        <clipPath id="clip0_509_57">
            <rect width="595" height="232" fill="white" />
        </clipPath>
    </defs>
</svg>
